# xmcd CD database file generated by OrangeCD 6.4
#
# Track frame offsets:
#	150
#	16985
#	35697
#	52042
#	78935
#	101757
#	124110
#	143532
#	160410
#	175695
#	190532
#	208159
#	227560
#	248155
#
# Disc length: 3492 seconds
#
# Revision: 4
# Processed by: cddbd v1.5.2PL0 Copyright (c) Steve Scherf et al.
# Submitted via: OrangeCD 6.4
#
DISCID=b40da20e
DTITLE=Various Artist - Gospel United -  People Get Ready
DYEAR=1995
DGENRE=Gospel
TTITLE0=Lillian Boutte - Jesus Won't Deny Me
TTITLE1=Lillian Boutte, Ivan Pedersen and Monique - People Get Ready
TTITLE2=Monique - I Believe (Sound Of Blackness)
TTITLE3=Ivan Pedersen - Nobody Knows The Trouble I've Seen
TTITLE4=Lillian Boutte - It Wasn't The Nails
TTITLE5=Burnell Bemiss - God Is Love
TTITLE6=Ivan Pedersen - Amazing Grace
TTITLE7=Lillian Boutte, Monique and Jeanett Krüger - I Feel All Right
TTITLE8=Monique - Amen
TTITLE9=Lillian Boutte, Monique and Jeanett Krüger - Swing Low Sweet Chariot
TTITLE10=Tanya Boutte and Terri DeGruy - Oh Lord, We Praise You
TTITLE11=Ivan Pedersen - Come On Children
TTITLE12=The Choir - May His Peace Be With You
TTITLE13=Lillian Boutte, Ivan Pedersen and Monique - People Get Ready - Singlem
TTITLE13=ix
EXTD=
EXTT0=
EXTT1=
EXTT2=
EXTT3=
EXTT4=
EXTT5=
EXTT6=
EXTT7=
EXTT8=
EXTT9=
EXTT10=
EXTT11=
EXTT12=
EXTT13=
PLAYORDER=
